<svg width="36" height="25" viewBox="0 0 36 25" fill="none" xmlns="http://www.w3.org/2000/svg">
<path d="M3.66088 0.444519C-2.71505 0.999031 0.660872 3.94452 3.16089 4.94452H31.6609C34.8609 4.94452 35.1609 1.44434 31.1609 0.444484C25.8275 0.444484 15.1609 -0.555629 3.66088 0.444519Z" fill="white"/>
<path d="M3.82177 19.3889C-2.55416 19.9434 0.821761 22.8889 3.32178 23.8889C22.1609 24.9443 28.6218 23.8889 31.8218 23.8889C35.0218 23.8889 35.3218 20.3887 31.3218 19.3888C25.9884 19.3888 15.3218 18.3887 3.82177 19.3889Z" fill="white"/>
<path d="M4.32173 9.88882C-2.0542 10.4433 0.821729 12.8888 3.32174 13.8888C22.1609 14.9443 28.6217 13.8888 31.8217 13.8888C35.0217 13.8888 36.6609 10.9442 32.6609 9.94434C27.3275 9.94434 15.8217 8.88867 4.32173 9.88882Z" fill="white"/>
</svg>
